<svg xmlns="http://www.w3.org/2000/svg" viewBox="0 0 1134 42" width="1134" height="42" role="img" aria-label="Insignias de Shin-MD">
  <defs><linearGradient id="filorgb" x1="0" y1="0" x2="1" y2="0" spreadMethod="repeat"><stop offset="0.000" stop-color="#4ADE80" stop-opacity="1"/><stop offset="0.200" stop-color="#38BDF8" stop-opacity="1"/><stop offset="0.400" stop-color="#A78BFA" stop-opacity="1"/><stop offset="0.600" stop-color="#F472B6" stop-opacity="1"/><stop offset="0.800" stop-color="#F0B429" stop-opacity="1"/><stop offset="1.000" stop-color="#4ADE80" stop-opacity="1"/><animateTransform attributeName="gradientTransform" type="translate" from="0 0" to="-1 0" dur="9s" repeatCount="indefinite"/></linearGradient></defs>
  <rect x="0" y="40" width="1134" height="2" rx="1" fill="url(#filorgb)" opacity="0.35"/>
  <g><rect x="4" y="3" width="168" height="36" rx="18" fill="#FFFFFF" stroke="rgba(16,32,26,0.12)" stroke-width="1.4"/><rect x="4" y="3" width="168" height="36" rx="18" fill="#4ADE80" fill-opacity="0.05"/><rect x="8" y="3" width="160" height="1.6" rx="0.8" fill="#4ADE80" opacity="0.35"/><circle cx="26" cy="21" r="7.6" fill="#4ADE80" fill-opacity="0.16"/><path d="M22.6 21 l2.5 2.5 4.6-5" fill="none" stroke="#4ADE80" stroke-width="1.7" stroke-linecap="round" stroke-linejoin="round"/><circle cx="26" cy="21" r="11" fill="none" stroke="#4ADE80" stroke-opacity="0.35"><animate attributeName="r" values="9;13;9" dur="3.2s" repeatCount="indefinite"/><animate attributeName="stroke-opacity" values="0.35;0;0.35" dur="3.2s" repeatCount="indefinite"/></circle><text x="44" y="25.5" font-family="Inter, 'Segoe UI', Roboto, 'Helvetica Neue', Arial, sans-serif" font-size="13.5" font-weight="600" fill="#22323D">140/140 pruebas</text></g><g><rect x="184" y="3" width="145" height="36" rx="18" fill="#FFFFFF" stroke="rgba(16,32,26,0.12)" stroke-width="1.4"/><rect x="184" y="3" width="145" height="36" rx="18" fill="#4ADE80" fill-opacity="0.05"/><rect x="188" y="3" width="137" height="1.6" rx="0.8" fill="#4ADE80" opacity="0.35"/><path d="M207.8 13.4 l-5.6 8.6 h3.6 l-1.5 7 5.8-8.9 h-3.6z" fill="#4ADE80"/><text x="224" y="25.5" font-family="Inter, 'Segoe UI', Roboto, 'Helvetica Neue', Arial, sans-serif" font-size="13.5" font-weight="600" fill="#22323D">210 comandos</text></g><g><rect x="341" y="3" width="137" height="36" rx="18" fill="#FFFFFF" stroke="rgba(16,32,26,0.12)" stroke-width="1.4"/><rect x="341" y="3" width="137" height="36" rx="18" fill="#38BDF8" fill-opacity="0.05"/><rect x="345" y="3" width="129" height="1.6" rx="0.8" fill="#38BDF8" opacity="0.35"/><path d="M356.6 16.4 h7.6 l5.6 5.6 -5.6 5.6 h-7.6 z" fill="none" stroke="#38BDF8" stroke-width="1.7" stroke-linecap="round" stroke-linejoin="round"/><circle cx="359.6" cy="22" r="1.1" fill="#38BDF8"/><text x="381" y="25.5" font-family="Inter, 'Segoe UI', Roboto, 'Helvetica Neue', Arial, sans-serif" font-size="13.5" font-weight="600" fill="#22323D">744 nombres</text></g><g><rect x="490" y="3" width="153" height="36" rx="18" fill="#FFFFFF" stroke="rgba(16,32,26,0.12)" stroke-width="1.4"/><rect x="490" y="3" width="153" height="36" rx="18" fill="#A78BFA" fill-opacity="0.05"/><rect x="494" y="3" width="145" height="1.6" rx="0.8" fill="#A78BFA" opacity="0.35"/><rect x="505.4" y="14.4" width="5.6" height="5.6" rx="1.2" fill="none" stroke="#A78BFA" stroke-width="1.7" stroke-linecap="round" stroke-linejoin="round"/><rect x="513" y="14.4" width="5.6" height="5.6" rx="1.2" fill="none" stroke="#A78BFA" stroke-width="1.7" stroke-linecap="round" stroke-linejoin="round"/><rect x="505.4" y="22" width="5.6" height="5.6" rx="1.2" fill="none" stroke="#A78BFA" stroke-width="1.7" stroke-linecap="round" stroke-linejoin="round"/><rect x="513" y="22" width="5.6" height="5.6" rx="1.2" fill="none" stroke="#A78BFA" stroke-width="1.7" stroke-linecap="round" stroke-linejoin="round"/><text x="530" y="25.5" font-family="Inter, 'Segoe UI', Roboto, 'Helvetica Neue', Arial, sans-serif" font-size="13.5" font-weight="600" fill="#22323D">15 categorías</text></g><g><rect x="655" y="3" width="137" height="36" rx="18" fill="#FFFFFF" stroke="rgba(16,32,26,0.12)" stroke-width="1.4"/><rect x="655" y="3" width="137" height="36" rx="18" fill="#5FA04E" fill-opacity="0.05"/><rect x="659" y="3" width="129" height="1.6" rx="0.8" fill="#5FA04E" opacity="0.35"/><path d="M677 13.6 l6.4 3.7 v7.4 L677 28.4 l-6.4-3.7 v-7.4z" fill="none" stroke="#5FA04E" stroke-width="1.7" stroke-linecap="round" stroke-linejoin="round"/><text x="695" y="25.5" font-family="Inter, 'Segoe UI', Roboto, 'Helvetica Neue', Arial, sans-serif" font-size="13.5" font-weight="600" fill="#22323D">Node ≥ 22.5</text></g><g><rect x="804" y="3" width="161" height="36" rx="18" fill="#FFFFFF" stroke="rgba(16,32,26,0.12)" stroke-width="1.4"/><rect x="804" y="3" width="161" height="36" rx="18" fill="#25D366" fill-opacity="0.05"/><rect x="808" y="3" width="153" height="1.6" rx="0.8" fill="#25D366" opacity="0.35"/><circle cx="826" cy="21" r="6.6" fill="none" stroke="#25D366" stroke-width="1.7" stroke-linecap="round" stroke-linejoin="round"/><path d="M821.4 27.6 l-1.6 4.4 4.6-2.2" fill="#25D366"/><text x="844" y="25.5" font-family="Inter, 'Segoe UI', Roboto, 'Helvetica Neue', Arial, sans-serif" font-size="13.5" font-weight="600" fill="#22323D">Baileys 6.7.24</text></g><g><rect x="977" y="3" width="153" height="36" rx="18" fill="#FFFFFF" stroke="rgba(16,32,26,0.12)" stroke-width="1.4"/><rect x="977" y="3" width="153" height="36" rx="18" fill="#F0B429" fill-opacity="0.05"/><rect x="981" y="3" width="145" height="1.6" rx="0.8" fill="#F0B429" opacity="0.35"/><path d="M999 14.4 v13.2 M994.4 27.6 h9.2 M992.6 17.6 h12.8" stroke="#F0B429" stroke-width="1.7" stroke-linecap="round"/><text x="1017" y="25.5" font-family="Inter, 'Segoe UI', Roboto, 'Helvetica Neue', Arial, sans-serif" font-size="13.5" font-weight="600" fill="#22323D">AGPL-3.0-only</text></g>
</svg>